<svg id="magnify" xmlns="http://www.w3.org/2000/svg" viewBox="0 0 224 224">
  <defs>
    <style>
      .cls-1 {
        fill: #fff;
        stroke: #ccc;
        stroke-miterlimit: 10;
        stroke-width: 8px;
      }
    </style>
  </defs>
  <title>magnifyicon</title>
  <circle class="cls-1" cx="112" cy="112" r="108"/>
  <g id="glass">
    <circle class="cls-1" cx="76.35" cy="79.48" r="34.68"/>
    <path class="cls-1" d="M700.45,561.66a10,10,0,0,1-.07,14.08h0a10,10,0,0,1-14.08.06l-62.72-62.73c-4.24-4.24,3.31-3.31,7.18-7.18h0c3.87-3.87,2.72-11.2,7-7Z" transform="translate(-528 -400)"/>
    <path class="cls-1" d="M637.72,527.22l-14.14-14.15c-4.24-4.24,3.31-3.31,7.18-7.18h0c3.87-3.87,2.72-11.2,7-7l14.14,14.14Z" transform="translate(-528 -400)"/>
  </g>
  <path id="details" class="cls-1" d="M588.82,495a22,22,0,0,1,0-31.05" transform="translate(-528 -400)"/>
</svg>
